<svg width="119" height="18" viewBox="0 0 119 18" fill="none" xmlns="http://www.w3.org/2000/svg">
<path d="M2.40102 8.68V3.56H5.08102C7.16102 3.56 8.04102 4.52 8.04102 6.14C8.04102 7.7 7.16102 8.68 5.08102 8.68H2.40102ZM9.90102 6.14C9.90102 3.86 8.36102 2.06 5.08102 2.06H0.581016V16H2.40102V10.18H5.08102C8.54102 10.18 9.90102 8.26 9.90102 6.14ZM13.983 10.04C13.983 7.5 15.303 6.72 17.043 6.72H17.523V4.84C15.783 4.84 14.603 5.6 13.983 6.82V5.04H12.163V16H13.983V10.04ZM19.624 16H21.444V5.04H19.624V16ZM20.564 3.26C21.224 3.26 21.764 2.72 21.764 2.02C21.764 1.32 21.224 0.779999 20.564 0.779999C19.864 0.779999 19.324 1.32 19.324 2.02C19.324 2.72 19.864 3.26 20.564 3.26ZM23.8659 10.5C23.8659 13.98 26.0859 16.18 29.2059 16.18C31.9259 16.18 33.7059 14.66 34.2659 12.48H32.3059C31.9059 13.86 30.8259 14.64 29.2059 14.64C27.2059 14.64 25.7259 13.22 25.7259 10.5C25.7259 7.82 27.2059 6.4 29.2059 6.4C30.8259 6.4 31.9259 7.24 32.3059 8.56H34.2659C33.7059 6.26 31.9259 4.86 29.2059 4.86C26.0859 4.86 23.8659 7.06 23.8659 10.5ZM41.3543 6.4C43.2343 6.4 44.8343 7.58 44.8143 9.72H37.8943C38.0943 7.58 39.5743 6.4 41.3543 6.4ZM46.4743 12.62H44.5143C44.1143 13.8 43.0743 14.64 41.4343 14.64C39.5743 14.64 38.0143 13.42 37.8743 11.2H46.6343C46.6743 10.82 46.6943 10.5 46.6943 10.1C46.6943 7.1 44.6143 4.86 41.4343 4.86C38.2343 4.86 36.0143 7.04 36.0143 10.5C36.0143 13.98 38.3143 16.18 41.4343 16.18C44.1543 16.18 45.9143 14.62 46.4743 12.62Z" fill="#69697B"/>
<path d="M57.8623 17.74H59.1423V16.12C62.0623 15.92 63.6623 14.02 63.6623 11.98C63.6623 9.02 61.2223 8.48 59.1423 7.94V4.16C59.9223 4.4 60.4023 5 60.4823 5.78H63.5023C63.3223 3.4 61.6423 2.06 59.1423 1.86V0.239999H57.8623V1.86C55.2623 2.06 53.3823 3.6 53.3823 5.96C53.3823 8.92 55.8023 9.5 57.8623 10.02V13.84C56.9423 13.64 56.4623 13.02 56.3823 12.1H53.3823C53.4423 14.5 55.2823 15.88 57.8623 16.1V17.74ZM60.7623 12.1C60.7623 13 60.1623 13.7 59.1423 13.88V10.38C60.0823 10.7 60.7623 11.16 60.7623 12.1ZM56.3023 5.82C56.3023 4.8 56.9423 4.24 57.8623 4.1V7.56C56.9423 7.24 56.3023 6.76 56.3023 5.82ZM72.8338 16H75.7138V1.42H70.8938V4H72.8338V16ZM78.3199 15.8H88.1999V13.48H82.2999C84.6199 11.52 87.8799 8.88 87.8799 5.5C87.8799 2.96 86.2999 1.1 83.1599 1.1C80.5399 1.1 78.3999 2.64 78.2999 5.98H81.0199C81.0399 4.44 81.7799 3.48 83.1199 3.48C84.4999 3.48 85.0799 4.36 85.0799 5.66C85.0799 8.34 81.6199 10.92 78.3199 13.72V15.8ZM93.2243 14.5C93.2243 13.58 92.5043 12.86 91.5243 12.86C90.5043 12.86 89.7843 13.58 89.7843 14.5C89.7843 15.42 90.5043 16.14 91.5243 16.14C92.5043 16.14 93.2243 15.42 93.2243 14.5ZM95.1596 8.52C95.1596 12.78 96.4396 15.96 100.56 15.96C104.68 15.96 105.96 12.78 105.96 8.52C105.96 4.3 104.68 1.14 100.56 1.14C96.4396 1.14 95.1596 4.3 95.1596 8.52ZM103.2 8.52C103.2 11.12 102.92 13.36 100.56 13.36C98.1996 13.36 97.9196 11.12 97.9196 8.52C97.9196 6.02 98.1996 3.74 100.56 3.74C102.92 3.74 103.2 6.02 103.2 8.52ZM108.089 8.52C108.089 12.78 109.369 15.96 113.489 15.96C117.609 15.96 118.889 12.78 118.889 8.52C118.889 4.3 117.609 1.14 113.489 1.14C109.369 1.14 108.089 4.3 108.089 8.52ZM116.129 8.52C116.129 11.12 115.849 13.36 113.489 13.36C111.129 13.36 110.849 11.12 110.849 8.52C110.849 6.02 111.129 3.74 113.489 3.74C115.849 3.74 116.129 6.02 116.129 8.52Z" fill="url(#paint0_linear_3119_4012)"/>
<defs>
<linearGradient id="paint0_linear_3119_4012" x1="59.5" y1="-1" x2="91.2958" y2="39.8069" gradientUnits="userSpaceOnUse">
<stop stop-color="#FF5331"/>
<stop offset="1" stop-color="#E35336"/>
</linearGradient>
</defs>
</svg>
